<svg width="28" height="28" viewBox="0 0 28 28" fill="none" xmlns="http://www.w3.org/2000/svg">
<g clip-path="url(#clip0_1_39)" filter="url(#filter0_d_1_39)">
<path d="M14 0.41687C8.475 0.41687 4 4.81687 4 10.2435C4 14.586 6.865 18.2685 10.8375 19.5669C11.3375 19.6594 11.5208 19.3552 11.5208 19.0944C11.5208 18.861 11.5125 18.2427 11.5083 17.4235C8.72667 18.016 8.14 16.1052 8.14 16.1052C7.685 14.971 7.0275 14.6677 7.0275 14.6677C6.12167 14.0585 7.0975 14.071 7.0975 14.071C8.10167 14.1394 8.62917 15.0835 8.62917 15.0835C9.52083 16.586 10.97 16.1519 11.5417 15.901C11.6317 15.2652 11.8892 14.8327 12.175 14.5869C9.95417 14.341 7.62 13.496 7.62 9.73104C7.62 8.65854 8.0075 7.78187 8.64917 7.09437C8.53667 6.84604 8.19917 5.84687 8.73667 4.49354C8.73667 4.49354 9.57417 4.2302 11.4867 5.50104C12.2867 5.2827 13.1367 5.17437 13.9867 5.16937C14.8367 5.17437 15.6867 5.2827 16.4867 5.50104C18.3867 4.2302 19.2242 4.49354 19.2242 4.49354C19.7617 5.84687 19.4242 6.84604 19.3242 7.09437C19.9617 7.78187 20.3492 8.65854 20.3492 9.73104C20.3492 13.506 18.0117 14.3369 15.7867 14.5785C16.1367 14.8735 16.4617 15.476 16.4617 16.3969C16.4617 17.7119 16.4492 18.7685 16.4492 19.0877C16.4492 19.3452 16.6242 19.6527 17.1367 19.5544C21.1375 18.2644 24 14.5794 24 10.2435C24 4.81687 19.5225 0.41687 14 0.41687V0.41687Z" fill="white"/>
</g>
<defs>
<filter id="filter0_d_1_39" x="0" y="0" width="28" height="28" filterUnits="userSpaceOnUse" color-interpolation-filters="sRGB">
<feFlood flood-opacity="0" result="BackgroundImageFix"/>
<feColorMatrix in="SourceAlpha" type="matrix" values="0 0 0 0 0 0 0 0 0 0 0 0 0 0 0 0 0 0 127 0" result="hardAlpha"/>
<feOffset dy="4"/>
<feGaussianBlur stdDeviation="2"/>
<feComposite in2="hardAlpha" operator="out"/>
<feColorMatrix type="matrix" values="0 0 0 0 0 0 0 0 0 0 0 0 0 0 0 0 0 0 0.25 0"/>
<feBlend mode="normal" in2="BackgroundImageFix" result="effect1_dropShadow_1_39"/>
<feBlend mode="normal" in="SourceGraphic" in2="effect1_dropShadow_1_39" result="shape"/>
</filter>
<clipPath id="clip0_1_39">
<rect width="20" height="20" fill="white" transform="translate(4)"/>
</clipPath>
</defs>
</svg>
